<?xml version="1.0" encoding="utf-8"?>
<!-- Generator: Adobe Illustrator 24.0.2, SVG Export Plug-In . SVG Version: 6.00 Build 0)  -->
<svg version="1.1" id="Layer_1" xmlns="http://www.w3.org/2000/svg" xmlns:xlink="http://www.w3.org/1999/xlink" x="0px" y="0px"
	 viewBox="0 0 399 103" style="enable-background:new 0 0 399 103;" xml:space="preserve">
<style type="text/css">
	.st0{clip-path:url(#SVGID_2_);fill:#FFFFFF;}
	.st1{clip-path:url(#SVGID_4_);fill:#FFFFFF;}
	.st2{clip-path:url(#SVGID_6_);fill:#FFFFFF;}
	.st3{clip-path:url(#SVGID_8_);fill:#FFFFFF;}
	.st4{clip-path:url(#SVGID_10_);fill:#FFFFFF;}
	.st5{clip-path:url(#SVGID_12_);fill:#FFFFFF;}
	.st6{clip-path:url(#SVGID_14_);fill:#FFFFFF;}
	.st7{clip-path:url(#SVGID_16_);fill:#FFFFFF;}
	.st8{clip-path:url(#SVGID_18_);fill:#FFFFFF;}
	.st9{clip-path:url(#SVGID_20_);fill:#FFFFFF;}
</style>
<g>
	<g>
		<defs>
			<rect id="SVGID_1_" x="-222" y="-247.3" width="841.9" height="595.3"/>
		</defs>
		<clipPath id="SVGID_2_">
			<use xlink:href="#SVGID_1_"  style="overflow:visible;"/>
		</clipPath>
		<path class="st0" d="M7.3,71.3c-1.2-0.7-1.8-1.9-1.8-3.5c0-1.6,1.2-4,3.5-7.3c0.7-1,1.8-1.6,3.3-1.6c1.5,0,3.6,0.8,6.2,2.3
			c2.6,1.5,4.9,2.3,7,2.3c3.8,0,5.6-0.7,5.6-2.2c0-1.2-2.1-2-6.2-2.6c-3.9-0.6-7.8-2-11.6-4.3c-1.8-1.1-3.3-2.9-4.4-5.2
			c-1.2-2.4-1.8-5.2-1.8-8.5c0-9.8,6.7-14.6,20.1-14.6c4.4,0,8.9,1,13.5,3.1c2.2,1,3.2,2.2,3.2,3.7s-0.7,3.3-2,5.5
			c-1.4,2.2-2.8,3.2-4.2,3.2c-0.7,0-2.1-0.5-4.1-1.4c-2-0.9-4.2-1.4-6.5-1.4c-3.6,0-5.5,0.7-5.5,2c0,1.8,2.1,3.1,6.3,3.6
			c4.1,0.4,8,1.6,11.9,3.5c1.8,0.9,3.3,2.4,4.5,4.5c1.2,2.1,1.8,4.8,1.8,8c0,3.2-0.6,5.9-1.8,8.2c-1.2,2.3-2.9,3.9-5.1,5.1
			c-4,1.9-8.9,2.9-14.9,2.9C18.5,76.5,12.8,74.8,7.3,71.3"/>
	</g>
	<g>
		<defs>
			<rect id="SVGID_3_" x="-222" y="-247.3" width="841.9" height="595.3"/>
		</defs>
		<clipPath id="SVGID_4_">
			<use xlink:href="#SVGID_3_"  style="overflow:visible;"/>
		</clipPath>
		<path class="st1" d="M79.1,43.3l-6-0.4v12.8c0,1.7,0.3,2.9,0.8,3.6c0.5,0.8,1.5,1.1,3,1.1c1.5,0,2.6,0,3.3,0.1s1.6,0.4,2.5,0.9
			c1.4,0.8,2.1,2.9,2.1,6.2c0,3.9-0.9,6.3-2.6,7.1c-0.9,0.4-1.7,0.7-2.5,0.8c-0.7,0.1-1.7,0.1-3.1,0.1c-6.4,0-11.3-1.4-14.6-4.3
			c-3.3-2.9-5-7.8-5-14.7V42.9c-1.2,0.2-2.4,0.3-3.8,0.3c-1.4,0-2.5-0.5-3.4-1.6c-0.9-1-1.3-2.8-1.3-5.4s0.2-4.4,0.5-5.5
			c0.3-1.1,0.7-2,1.3-2.5c1-0.8,2.2-1.2,3.7-1.2l3.1,0.4v-9.5c0-1.4,0-2.5,0.1-3.1c0.1-0.7,0.4-1.4,0.9-2.2c0.8-1.5,3.2-2.3,7.1-2.3
			c4.2,0,6.7,1.1,7.5,3.4c0.3,1,0.5,2.6,0.5,4.7v9.1c2.7-0.2,4.8-0.4,6.2-0.4s2.4,0,3.2,0.1c0.7,0.1,1.5,0.4,2.4,0.9
			c1.6,0.8,2.4,3.2,2.4,7.1c0,3.9-0.8,6.3-2.5,7.1c-0.9,0.4-1.7,0.7-2.4,0.8C81.6,43.2,80.5,43.3,79.1,43.3"/>
	</g>
	<g>
		<defs>
			<rect id="SVGID_5_" x="-222" y="-247.3" width="841.9" height="595.3"/>
		</defs>
		<clipPath id="SVGID_6_">
			<use xlink:href="#SVGID_5_"  style="overflow:visible;"/>
		</clipPath>
		<path class="st2" d="M98.8,33c5.2-4.8,11.1-7.2,17.8-7.2c6.7,0,12.6,2.4,17.7,7.2c5.1,4.8,7.7,10.9,7.7,18.3c0,5.1-1.3,9.7-4,13.7
			c-2.7,4-5.9,6.9-9.7,8.8c-3.8,1.9-7.7,2.8-11.8,2.8s-8-1-11.9-3s-7.1-5-9.7-8.9c-2.6-3.9-3.9-8.3-3.9-13.3
			C91,43.9,93.6,37.8,98.8,33 M110.3,58c2,1.5,4,2.3,6,2.3c2,0,4.1-0.8,6.1-2.3s3.1-3.8,3.1-6.8c0-3-1-5.3-2.9-6.8
			c-1.9-1.5-4-2.2-6.2-2.2c-2.2,0-4.3,0.8-6.2,2.3c-1.9,1.5-2.9,3.8-2.9,6.8C107.4,54.2,108.3,56.4,110.3,58"/>
	</g>
	<g>
		<defs>
			<rect id="SVGID_7_" x="-222" y="-247.3" width="841.9" height="595.3"/>
		</defs>
		<clipPath id="SVGID_8_">
			<use xlink:href="#SVGID_7_"  style="overflow:visible;"/>
		</clipPath>
		<path class="st3" d="M163.2,51.3c0,2.6,0.9,4.7,2.6,6.1c1.7,1.5,3.6,2.2,5.5,2.2s3.8-0.6,5.5-1.7c1.7-1.1,3.1-1.7,4.1-1.7
			c1.9,0,4.1,1.6,6.8,4.9c1.4,1.8,2.1,3.4,2.1,4.8c0,2.3-1.7,4.5-5.1,6.6c-3.5,2.5-7.9,3.7-13,3.7c-5.7,0-11.3-2.1-16.6-6.2
			c-2.5-2-4.6-4.6-6.2-7.9c-1.6-3.3-2.4-7-2.4-10.9s0.8-7.6,2.4-10.8c1.6-3.2,3.7-5.8,6.2-7.8c5.1-4.1,10.6-6.1,16.4-6.1
			c2.4,0,4.6,0.3,6.9,1c2.2,0.6,3.9,1.3,4.9,1.9l1.5,0.9c1.1,0.7,2,1.3,2.6,1.8c1.6,1.2,2.4,2.6,2.4,4.2s-0.6,3.3-1.9,5.3
			c-2.2,3.4-4.4,5.1-6.4,5.1c-1.2,0-2.9-0.7-5-2c-1.1-1-2.7-1.6-4.8-1.6c-2.1,0-4,0.7-5.8,2.2C164.1,46.6,163.2,48.7,163.2,51.3"/>
	</g>
	<g>
		<defs>
			<rect id="SVGID_9_" x="-222" y="-247.3" width="841.9" height="595.3"/>
		</defs>
		<clipPath id="SVGID_10_">
			<use xlink:href="#SVGID_9_"  style="overflow:visible;"/>
		</clipPath>
		<path class="st4" d="M224.5,51.2l12.3,10.2c1.5,1.3,2.5,2.3,2.9,3c0.4,0.7,0.6,1.3,0.6,1.9c0,1.5-1,3.5-2.9,6
			c-2.1,2.6-3.9,3.9-5.6,3.9c-1.4,0-3.2-0.9-5.6-2.7l-0.9-0.6c-1.4-1.2-3.6-3.2-6.6-6.2c-3-2.9-5.2-5-6.8-6.3v7.1
			c0,1.4,0,2.5-0.1,3.2c-0.1,0.7-0.4,1.5-0.9,2.5c-0.8,1.6-3.2,2.4-7.1,2.4c-3.9,0-6.3-0.8-7.1-2.5c-0.4-0.9-0.7-1.7-0.8-2.4
			c-0.1-0.7-0.1-1.8-0.1-3.2V12.1c0-1.4,0.1-2.5,0.1-3.2c0.1-0.7,0.4-1.5,0.8-2.5c0.9-1.7,3.3-2.5,7.2-2.5c3,0,5.1,0.5,6.3,1.6
			c1.1,0.9,1.6,2.2,1.7,4.1c0.1,0.6,0.1,1.4,0.1,2.6v29.4c1.1-0.9,2.8-2.5,5.1-4.7c2.2-2.2,3.9-3.8,5.1-4.7l1.1-0.7
			c2.2-1.7,4-2.5,5.6-2.5c1.5,0,3.3,1.2,5.3,3.7s3,4.5,3,5.9c0,1.4-1.1,3.1-3.4,5L224.5,51.2z"/>
	</g>
	<g>
		<defs>
			<rect id="SVGID_11_" x="-222" y="-247.3" width="841.9" height="595.3"/>
		</defs>
		<clipPath id="SVGID_12_">
			<use xlink:href="#SVGID_11_"  style="overflow:visible;"/>
		</clipPath>
		<path class="st5" d="M351.5,52c0-7-3.2-13.2-8.4-17.7h0.7c1,0,1.7-0.8,1.7-1.7v-0.2c0-1-0.8-1.7-1.7-1.7h-39.7
			c-1,0-1.7,0.8-1.7,1.7v0.2c0,1,0.8,1.7,1.7,1.7h0.7c-5.1,4.5-8.4,10.8-8.4,17.7c0,8.2,4.5,15.5,11.3,20c-1.3-2.5-1.9-5.2-1.7-7.6
			c1.2,2.8,5.6,5.2,8.2,4.7c-0.5-1.7-1.2-7.3,1.1-10.6c3.7-5.3,12.9-8.2,8.5-13.3c3.7,1.1,5,4.4,4.1,7.2c-0.9,2.7-3.2,5-4.8,7.5
			c-0.5,0.7-0.7,1.6-0.5,2.3c0.3,1,2,2,3.3,1.6c2.4-0.7,2-2.2,1.2-4c3.6,2.2,3.7,3.7,3.3,6.9c6-3.1-1.7-8.3,3.1-13.3
			c-1.4,4.8,6.3,7.3,7.8,13.2c0.4,1.4,0.4,2.9,0.2,4.4C347.7,66.3,351.5,59.5,351.5,52"/>
	</g>
	<g>
		<defs>
			<rect id="SVGID_13_" x="-222" y="-247.3" width="841.9" height="595.3"/>
		</defs>
		<clipPath id="SVGID_14_">
			<use xlink:href="#SVGID_13_"  style="overflow:visible;"/>
		</clipPath>
		<path class="st6" d="M321.9,26.9L317.3,16l6.2,10c1.5-1.8,2.4-6.4,0.4-10.2c-2.3-4.5-8.2-6.1-9.6-5.4c-1.5,0.8-3.5,6.4-1.2,10.9
			C315.3,25.2,319.4,27.2,321.9,26.9"/>
	</g>
	<g>
		<defs>
			<rect id="SVGID_15_" x="-222" y="-247.3" width="841.9" height="595.3"/>
		</defs>
		<clipPath id="SVGID_16_">
			<use xlink:href="#SVGID_15_"  style="overflow:visible;"/>
		</clipPath>
		<path class="st7" d="M332.9,19.3l-4.2,5c1.2,0.5,3.8,0.2,5.5-1.5c2-2,1.8-5.4,1.2-6c-0.6-0.6-4-0.8-6,1.2
			c-1.7,1.7-2.1,4.3-1.5,5.5L332.9,19.3z"/>
	</g>
	<g>
		<defs>
			<rect id="SVGID_17_" x="-222" y="-247.3" width="841.9" height="595.3"/>
		</defs>
		<clipPath id="SVGID_18_">
			<use xlink:href="#SVGID_17_"  style="overflow:visible;"/>
		</clipPath>
		<path class="st8" d="M245.4,88.9V34.8c0-1.4,0.1-2.5,0.1-3.1c0.1-0.7,0.4-1.5,0.8-2.3c0.9-1.7,2.9-2.5,6.2-2.5
			c3.3,0,5.5,0.4,6.6,1.2c1.1,0.8,1.8,2,2,3.7c2.4-3.2,6-4.8,11.1-4.8c5,0,9.8,2.4,14.3,7.1c4.5,4.8,6.8,10.3,6.8,16.6
			s-2.2,11.8-6.7,16.6c-4.5,4.8-9.2,7.1-14.3,7.1s-8.7-1.4-11-4.3v18.7c0,1.4,0,2.5-0.1,3.2c-0.1,0.7-0.4,1.5-0.8,2.4
			s-1.2,1.5-2.4,1.9c-1.1,0.4-2.6,0.6-4.5,0.6s-3.4-0.2-4.6-0.6s-1.9-1-2.4-1.8s-0.7-1.6-0.8-2.3C245.5,91.4,245.4,90.4,245.4,88.9
			 M263.8,45.3c-1.4,1.7-2.1,3.5-2.1,5.5c0,2,0.7,3.8,2.2,5.4c1.5,1.6,3.3,2.5,5.5,2.5c2.2,0,4.2-0.8,5.7-2.4
			c1.6-1.6,2.4-3.4,2.4-5.5c0-2-0.8-3.9-2.2-5.5s-3.4-2.5-5.8-2.5C267.1,42.8,265.2,43.7,263.8,45.3"/>
	</g>
	<g>
		<defs>
			<rect id="SVGID_19_" x="-222" y="-247.3" width="841.9" height="595.3"/>
		</defs>
		<clipPath id="SVGID_20_">
			<use xlink:href="#SVGID_19_"  style="overflow:visible;"/>
		</clipPath>
		<path class="st9" d="M384.2,43.3l-6-0.4v12.8c0,1.7,0.3,2.9,0.8,3.6c0.5,0.8,1.5,1.1,3,1.1c1.5,0,2.6,0,3.3,0.1s1.6,0.4,2.5,0.9
			c1.4,0.8,2.1,2.9,2.1,6.2c0,3.9-0.9,6.3-2.6,7.1c-0.9,0.4-1.7,0.7-2.5,0.8c-0.7,0.1-1.7,0.1-3.1,0.1c-6.4,0-11.3-1.4-14.6-4.3
			c-3.3-2.9-5-7.8-5-14.7V42.9c-1.2,0.2-2.4,0.3-3.8,0.3c-1.4,0-2.5-0.5-3.4-1.6c-0.9-1-1.4-2.8-1.4-5.4s0.1-4.4,0.5-5.5
			c0.3-1.1,0.7-2,1.3-2.5c1-0.8,2.2-1.2,3.7-1.2l3.1,0.4v-9.5c0-1.4,0-2.5,0.1-3.1c0.1-0.7,0.4-1.4,0.9-2.2c0.8-1.5,3.2-2.3,7.1-2.3
			c4.2,0,6.7,1.1,7.5,3.4c0.3,1,0.5,2.6,0.5,4.7v9.1c2.7-0.2,4.8-0.4,6.2-0.4s2.4,0,3.1,0.1c0.7,0.1,1.5,0.4,2.5,0.9
			c1.6,0.8,2.4,3.2,2.4,7.1c0,3.9-0.8,6.3-2.5,7.1c-0.9,0.4-1.7,0.7-2.5,0.8C386.6,43.2,385.6,43.3,384.2,43.3"/>
	</g>
</g>
</svg>
